<?xml version="1.0" standalone="no"?>
<!DOCTYPE svg PUBLIC "-//W3C//DTD SVG 20010904//EN"
 "http://www.w3.org/TR/2001/REC-SVG-20010904/DTD/svg10.dtd">
<svg version="1.0" xmlns="http://www.w3.org/2000/svg"
 width="1200.000000pt" height="1200.000000pt" viewBox="0 0 1200.000000 1200.000000"
 preserveAspectRatio="xMidYMid meet">
<metadata>
Created by potrace 1.14, written by Peter Selinger 2001-2017
</metadata>
<g transform="translate(0.000000,1200.000000) scale(0.100000,-0.100000)"
fill="#000000" stroke="none">
<path d="M0 6000 l0 -6000 6000 0 6000 0 0 6000 0 6000 -6000 0 -6000 0 0
-6000z m6395 4220 c241 -36 412 -80 620 -158 948 -356 1647 -1165 1859 -2153
48 -219 60 -346 61 -614 0 -280 -9 -378 -61 -622 -92 -436 -264 -810 -542
-1183 -93 -123 -364 -403 -492 -507 -197 -159 -476 -324 -723 -427 -1051 -441
-2295 -225 -3127 542 -292 269 -493 537 -668 892 -147 297 -226 554 -279 906
-24 167 -25 619 0 784 55 363 145 649 298 951 293 575 778 1050 1354 1325 335
160 681 254 1045 285 159 13 498 2 655 -21z m-3163 -6518 c4 -4 -26 -160 -66
-347 l-72 -340 -67 -3 c-59 -3 -67 -1 -67 15 0 10 15 87 34 171 l33 154 -26
10 c-14 6 -44 11 -65 12 l-39 1 -39 -104 c-49 -129 -81 -272 -75 -329 l5 -44
-37 7 c-20 4 -46 16 -58 28 -49 44 -21 191 68 369 l41 81 -37 -6 c-49 -8 -66
-24 -59 -53 8 -30 -11 -54 -43 -54 -43 0 -63 17 -63 56 0 66 79 114 187 114
48 0 52 2 78 43 37 55 150 172 193 199 19 12 48 24 66 29 32 8 96 3 108 -9z
m3686 -72 l-41 -90 -38 0 c-26 0 -37 4 -34 13 30 96 48 153 52 160 2 4 26 7
53 7 l49 0 -41 -90z m992 65 c46 -24 70 -62 70 -111 0 -69 -53 -105 -110 -74
-19 10 -19 11 0 43 24 39 25 65 4 96 -14 19 -23 22 -55 18 -73 -10 -132 -74
-175 -192 -58 -160 0 -310 108 -281 43 11 50 23 72 117 l22 94 53 3 c30 2 57
0 62 -5 8 -8 -72 -386 -93 -438 -24 -59 -61 -104 -102 -124 -54 -26 -123 -34
-166 -18 -72 25 -103 125 -60 195 51 84 190 72 190 -16 0 -20 -4 -23 -20 -18
-11 3 -29 9 -39 12 -26 8 -71 -37 -71 -71 0 -37 35 -68 68 -60 46 11 62 37 91
156 16 63 28 115 27 116 -1 1 -22 -5 -46 -13 -54 -19 -128 -13 -173 14 -68 39
-105 143 -92 255 17 155 112 274 247 312 60 17 145 12 188 -10z m767 -37 c48
-45 13 -128 -54 -128 -32 0 -73 42 -73 75 0 34 42 75 76 75 15 0 38 -10 51
-22z m-4977 -2 c0 -8 -25 -129 -55 -270 -30 -141 -52 -263 -49 -271 8 -21 57
-19 77 3 18 20 34 78 68 245 l24 117 67 0 c38 0 68 -4 68 -9 0 -5 -16 -85 -35
-177 -20 -92 -33 -174 -31 -181 8 -19 50 -16 78 6 32 26 74 105 93 176 20 79
20 105 -3 105 -24 0 -42 19 -42 46 0 46 55 70 94 41 42 -31 25 -201 -33 -321
-58 -123 -153 -182 -249 -156 -24 6 -49 22 -61 38 l-19 27 -24 -22 c-49 -46
-128 -57 -172 -22 -14 11 -26 27 -26 36 0 11 -10 6 -35 -16 -103 -90 -222 -48
-233 83 -10 128 64 288 155 331 42 20 126 23 147 6 19 -16 21 -10 41 91 l18
87 46 6 c25 4 51 8 56 10 22 8 35 4 35 -9z m5255 -8 c-41 -179 -105 -499 -103
-518 2 -20 9 -26 34 -28 43 -4 63 23 75 104 17 118 77 221 153 261 41 22 120
21 144 0 19 -17 20 -15 37 71 9 49 20 94 24 101 7 10 130 35 138 27 2 -1 -22
-119 -53 -261 -30 -142 -54 -268 -52 -279 2 -16 12 -22 36 -24 29 -3 32 -6 26
-25 -10 -33 -25 -49 -63 -64 -44 -19 -84 -9 -116 29 l-26 31 -28 -27 c-54 -52
-138 -56 -186 -9 -14 14 -25 30 -25 35 0 5 -17 -4 -37 -21 -21 -16 -59 -35
-85 -41 -39 -10 -51 -9 -82 5 -20 10 -36 20 -36 24 0 3 -4 12 -9 20 -7 11 -15
9 -42 -12 -41 -30 -109 -50 -144 -41 -14 3 -36 20 -50 36 l-25 30 -31 -26
c-35 -30 -101 -50 -132 -40 -29 8 -67 44 -67 62 0 9 -12 4 -34 -16 -48 -42
-97 -57 -141 -42 -76 25 -81 77 -32 310 l33 155 67 3 c50 2 67 0 67 -10 0 -8
-15 -85 -33 -173 -18 -88 -31 -168 -29 -178 5 -26 51 -18 73 13 11 14 32 87
49 165 17 77 32 150 35 163 5 20 11 22 74 22 l68 0 -34 -162 c-18 -90 -33
-174 -31 -188 4 -34 48 -40 76 -10 18 19 26 49 79 293 l15 67 69 0 c62 0 70
-2 65 -17 -19 -66 -67 -316 -64 -335 4 -30 51 -37 79 -12 25 22 37 66 89 314
24 113 47 209 51 213 6 7 69 20 127 26 8 1 11 -7 7 -21z m-3805 -35 c0 -10 -6
-44 -14 -75 l-13 -58 29 0 c41 0 35 -34 -7 -38 l-30 -3 -33 -159 c-18 -88 -30
-164 -27 -170 11 -18 61 -11 83 13 28 30 34 50 68 215 l29 142 67 0 c38 0 68
-4 68 -9 0 -5 -16 -84 -35 -175 -19 -91 -32 -172 -29 -181 9 -24 54 -15 75 15
11 15 33 92 52 185 l33 160 67 3 c53 2 67 0 67 -12 0 -8 -15 -87 -34 -176 -19
-90 -32 -169 -29 -176 7 -20 57 -17 76 4 18 20 34 78 68 245 l24 117 67 0 c61
0 68 -2 68 -20 0 -25 2 -25 42 0 42 25 83 25 108 0 40 -40 12 -120 -43 -120
-28 0 -47 17 -47 42 0 26 -36 23 -63 -4 -17 -18 -30 -61 -57 -195 l-35 -173
-67 0 c-54 0 -68 3 -68 15 0 14 -3 14 -27 1 -73 -37 -156 -23 -169 28 l-6 26
-34 -29 c-50 -44 -101 -57 -147 -37 -20 8 -42 26 -48 40 l-12 25 -33 -29 c-38
-33 -105 -54 -142 -45 -14 3 -37 19 -52 35 l-27 29 -23 -25 c-28 -29 -90 -48
-130 -39 -16 3 -40 17 -54 30 -33 30 -34 83 -6 205 11 47 20 97 20 111 0 34
-25 57 -48 43 -36 -23 -53 -66 -82 -199 -16 -77 -32 -150 -35 -162 -5 -21 -11
-23 -74 -23 l-69 0 9 38 c13 56 11 58 -18 30 -43 -40 -74 -56 -128 -68 -63
-14 -133 1 -166 37 -22 22 -24 34 -24 121 0 86 3 104 29 159 51 110 139 171
233 160 64 -7 88 -34 87 -97 -3 -86 -66 -155 -166 -182 -48 -12 -48 -13 -48
-54 0 -52 17 -67 77 -66 49 1 112 36 139 77 7 11 28 87 45 168 l32 147 70 0
c64 0 69 -2 64 -20 -5 -18 -3 -18 18 -4 59 39 139 35 170 -9 21 -30 19 -113
-6 -209 -11 -44 -19 -92 -17 -107 3 -22 8 -26 37 -26 48 0 64 31 99 198 24
109 27 137 16 137 -8 0 -14 9 -14 20 0 13 7 20 19 20 15 0 21 12 31 65 l12 64
47 6 c25 4 51 8 56 10 23 8 35 4 35 -12z m2083 -180 c20 -242 20 -298 2 -336
-25 -54 -91 -90 -164 -91 -70 0 -113 22 -135 69 -22 46 -14 83 29 135 27 33
78 145 118 262 4 10 21 19 44 23 21 4 45 8 53 10 46 9 47 8 53 -72z m-934 42
c33 -16 41 -33 41 -80 0 -45 -16 -84 -48 -119 -31 -32 -116 -76 -149 -76 -19
0 -23 -5 -23 -34 0 -51 27 -79 77 -78 50 1 87 19 128 62 26 27 34 50 60 178
l31 147 67 3 c66 3 67 2 67 -22 l0 -25 36 24 c47 32 97 33 118 3 35 -49 5
-118 -50 -118 -19 0 -28 7 -37 30 -13 34 -35 38 -66 13 -17 -14 -29 -55 -58
-195 l-37 -178 -68 0 c-37 0 -68 3 -68 8 0 4 4 24 9 45 l9 37 -30 -25 c-56
-47 -109 -68 -173 -69 -78 -1 -119 23 -141 81 -30 77 1 221 65 311 54 74 173
112 240 77z m1377 -1217 c-29 -156 -57 -578 -38 -578 15 0 24 17 34 60 6 30 7
28 4 -14 -3 -33 -10 -54 -22 -63 -25 -18 -32 -17 -58 12 -23 25 -23 25 -41 5
-26 -29 -76 -26 -105 5 -31 33 -42 123 -28 215 9 53 17 71 45 99 30 30 38 33
73 28 46 -6 45 -10 56 153 3 52 8 98 11 102 2 5 20 8 40 8 34 0 35 -1 29 -32z
m-1909 11 c7 -7 9 -57 6 -147 l-5 -137 28 33 c40 47 81 43 107 -10 18 -37 18
-41 -2 -166 -24 -149 -24 -142 -11 -142 12 0 40 65 40 91 0 11 5 19 11 19 14
0 3 -62 -17 -103 -20 -37 -58 -55 -80 -36 -15 12 -16 28 -9 129 12 190 12 215
-5 215 -8 0 -26 -20 -39 -44 -34 -61 -50 -254 -24 -283 15 -17 14 -18 -30 -18
-25 0 -53 3 -61 6 -15 6 -15 8 -2 18 13 9 17 59 22 286 7 255 6 274 -9 261
-15 -12 -17 -11 -17 7 0 13 8 22 23 25 42 8 63 7 74 -4z m856 2 c26 -10 45
-70 30 -94 -5 -7 -10 3 -13 27 -6 45 -26 62 -62 53 -17 -5 -30 -18 -38 -39
-23 -64 -33 -471 -14 -565 6 -29 49 -32 63 -4 6 10 13 76 17 148 6 121 6 130
-12 137 -18 8 -18 8 1 16 29 12 105 12 105 0 0 -5 -4 -10 -8 -10 -5 0 -12 -51
-16 -112 -10 -164 -41 -218 -127 -218 -82 0 -119 77 -119 244 0 324 66 465
193 417z m1226 0 c10 -7 8 -12 -10 -25 -24 -16 -24 -18 -27 -251 l-4 -235 23
0 c15 0 20 -3 13 -10 -13 -13 -98 -24 -120 -16 -15 6 -16 8 -1 19 13 10 16 47
19 244 2 212 1 233 -16 252 -20 21 -24 20 89 29 11 1 26 -2 34 -7z m-2267 -6
c3 -3 2 -25 -2 -48 -4 -23 -10 -72 -14 -109 l-6 -67 27 -3 c35 -4 42 -25 8
-25 -14 0 -29 -4 -33 -8 -10 -9 -9 -305 1 -329 7 -18 8 -18 28 0 18 16 20 27
16 67 -5 41 -4 47 12 47 16 0 17 -6 10 -52 -4 -29 -10 -61 -14 -70 -9 -23 -40
-32 -65 -18 -38 20 -52 75 -58 218 l-5 133 -30 -7 c-22 -4 -28 -3 -25 7 2 7
15 16 29 19 22 5 25 13 35 105 11 90 14 101 40 122 30 24 37 27 46 18z m1742
-35 c0 -19 -9 -96 -19 -170 -21 -161 -18 -377 5 -405 13 -16 15 -16 32 5 19
24 25 80 8 80 -5 0 -10 7 -10 15 0 20 26 19 34 -1 3 -9 6 -33 6 -55 0 -45 -34
-89 -69 -89 -27 0 -65 49 -81 105 -24 86 2 431 41 533 6 17 15 22 32 20 18 -2
22 -9 21 -38z m-2836 -7 c3 -25 -1 -33 -13 -33 -12 0 -15 6 -10 20 5 16 2 20
-18 20 l-25 0 -6 -137 c-11 -255 -25 -428 -37 -461 -13 -39 -35 -52 -87 -52
-26 0 -45 6 -57 20 -29 32 -34 170 -5 170 5 0 7 -26 3 -63 -9 -96 25 -140 64
-81 14 21 18 65 24 247 4 122 8 252 8 290 l1 67 -36 0 c-27 0 -37 -5 -41 -20
-8 -32 -33 -24 -33 10 l0 29 83 3 c185 7 182 7 185 -29z m387 -44 c12 -19 -4
-61 -23 -57 -30 6 -28 68 2 68 8 0 18 -5 21 -11z m2253 -21 c-2 -25 -8 -33
-23 -33 -20 0 -31 25 -21 51 3 8 15 14 26 14 18 0 21 -5 18 -32z m-2413 -134
c14 -15 25 -22 25 -15 0 6 7 11 15 11 14 0 14 -3 2 -27 -8 -16 -17 -72 -20
-126 -4 -75 -11 -110 -29 -145 -78 -157 -218 14 -164 200 19 68 48 105 89 117
49 14 56 13 82 -15z m1455 -4 c15 -15 20 -33 20 -75 l0 -55 -44 0 c-25 0 -56
-4 -70 -10 -24 -9 -26 -14 -26 -67 1 -65 13 -130 28 -145 6 -6 22 -8 35 -4 32
8 54 64 38 95 -8 14 -8 22 0 27 21 13 29 -12 20 -66 -11 -66 -39 -94 -85 -84
-72 16 -96 62 -96 186 0 144 40 218 119 218 28 0 48 -7 61 -20z m-1309 -141
c-3 -148 3 -205 20 -178 5 8 9 31 9 53 0 32 2 36 14 27 18 -15 3 -88 -23 -115
-21 -21 -55 -15 -66 12 -12 30 -18 176 -10 266 7 87 7 87 33 84 l27 -3 -4
-146z m321 134 c23 -21 24 -77 1 -205 -16 -94 -13 -129 8 -98 5 8 7 23 5 33
-2 10 2 17 10 17 18 0 18 -24 -1 -60 -11 -21 -23 -30 -40 -30 -41 0 -47 28
-40 179 7 123 6 138 -10 151 -15 13 -20 11 -45 -16 -25 -29 -27 -39 -34 -155
-6 -105 -5 -125 9 -135 26 -19 17 -24 -45 -24 -33 0 -60 4 -60 10 0 6 7 10 15
10 11 0 15 13 16 48 1 26 3 88 5 137 3 104 -1 125 -24 126 -10 1 -7 4 8 8 31
9 80 2 80 -11 0 -5 12 0 26 11 32 25 90 27 116 4z m1669 -134 c-4 -161 1 -198
26 -178 37 31 53 86 53 184 0 101 10 135 38 135 43 -1 45 -10 23 -147 -25
-156 -26 -193 -6 -193 8 0 15 9 15 20 0 11 5 20 10 20 18 0 11 -36 -11 -56
-26 -23 -48 -11 -64 36 l-11 33 -22 -37 c-19 -32 -26 -37 -55 -34 -53 5 -68
49 -69 207 0 121 -2 131 -19 131 -11 0 -19 4 -19 9 0 12 23 17 75 16 l40 0 -4
-146z m275 139 c1 -2 -2 -52 -8 -111 -5 -60 -7 -134 -3 -165 6 -52 8 -55 21
-37 8 11 14 32 12 47 -1 15 2 27 7 27 16 0 10 -75 -9 -104 -23 -34 -56 -30
-76 10 -16 32 -20 233 -6 308 6 33 10 37 33 33 14 -3 27 -7 29 -8z m678 -367
c11 -18 -13 -63 -31 -59 -19 3 -28 30 -19 54 6 16 42 19 50 5z"/>
<path d="M5765 10114 c-560 -54 -1042 -233 -1458 -542 -637 -471 -1026 -1132
-1139 -1932 -20 -145 -17 -583 5 -735 61 -411 190 -772 391 -1094 478 -770
1261 -1258 2150 -1342 259 -24 624 -2 871 52 416 92 835 292 1168 558 308 246
582 589 766 961 182 369 274 737 288 1155 16 507 -88 963 -318 1404 -317 607
-832 1069 -1474 1324 -326 130 -614 186 -980 192 -126 2 -248 1 -270 -1z m205
-1164 c0 -115 -2 -210 -4 -210 -3 0 -316 -77 -697 -170 -381 -94 -693 -169
-695 -168 -3 4 1379 758 1389 758 4 0 7 -94 7 -210z m775 -174 c380 -207 687
-376 683 -376 -4 0 -319 77 -699 170 -381 94 -694 170 -696 170 -1 0 -3 95 -3
211 0 165 3 210 13 206 6 -3 323 -174 702 -381z m-1356 -1094 c-299 -539 -546
-978 -548 -976 -7 6 -479 1569 -475 1573 5 6 1558 388 1563 385 2 -2 -241
-444 -540 -982z m1456 793 c418 -102 767 -189 776 -193 14 -6 -18 -119 -222
-790 -130 -431 -239 -785 -241 -787 -2 -2 -244 429 -538 958 -293 529 -540
972 -548 985 -12 18 -12 22 -1 18 8 -3 356 -89 774 -191z m-289 -828 l551
-992 -554 -3 c-304 -1 -802 -1 -1107 0 l-555 3 551 993 c303 545 554 992 557
992 3 0 254 -447 557 -993z m-1977 -308 c116 -383 211 -700 211 -705 -1 -8
-419 -254 -433 -254 -4 0 -7 384 -6 853 0 468 4 841 9 827 4 -14 103 -338 219
-721z m3069 -536 l-3 -429 -217 126 c-120 69 -218 130 -218 135 0 6 97 334
217 729 l218 720 3 -426 c1 -235 1 -619 0 -855z m-805 -486 c-136 -145 -381
-406 -543 -580 -162 -175 -298 -316 -302 -315 -4 2 -92 93 -195 204 -104 110
-347 370 -541 577 l-353 377 1091 0 1091 0 -248 -263z m-1577 -214 c241 -258
467 -499 503 -537 56 -58 60 -66 31 -49 -41 24 -1304 738 -1368 773 -24 14
-38 28 -33 33 11 11 414 246 423 246 4 1 204 -209 444 -466z m2112 352 c109
-63 206 -120 215 -127 15 -12 -69 -62 -665 -398 -376 -211 -699 -393 -718
-404 -33 -19 -32 -17 20 41 123 138 936 1002 943 1003 5 0 97 -52 205 -115z"/>
<path d="M3043 3608 c-36 -38 -113 -156 -113 -173 0 -10 98 -40 106 -33 7 8
51 238 45 238 -4 0 -21 -15 -38 -32z"/>
<path d="M3417 3392 c-53 -55 -94 -221 -68 -270 14 -27 51 -29 81 -4 17 14 29
47 51 143 15 68 26 132 23 142 -8 27 -56 21 -87 -11z"/>
<path d="M9160 3378 c-38 -52 -60 -125 -60 -198 0 -60 11 -80 45 -80 42 0 64
40 91 167 15 67 24 129 21 137 -4 10 -18 16 -37 16 -24 0 -36 -9 -60 -42z"/>
<path d="M4302 3413 c-25 -24 -72 -125 -72 -153 0 -6 9 -10 20 -10 30 0 98 73
105 113 14 74 -9 95 -53 50z"/>
<path d="M7058 3291 c-20 -44 -32 -83 -27 -87 13 -8 11 -48 -3 -62 -7 -7 -20
-12 -30 -12 -21 0 -24 -20 -6 -38 18 -18 62 -14 92 9 23 18 26 27 25 82 -1 34
-4 91 -8 125 l-6 64 -37 -81z"/>
<path d="M6215 3424 c-28 -28 -44 -58 -64 -117 l-20 -57 21 0 c32 0 104 78
112 123 11 57 -16 84 -49 51z"/>
<path d="M7508 1988 c-13 -25 -24 -242 -14 -282 8 -32 32 -33 57 -3 16 19 18
40 19 153 0 129 -6 154 -37 154 -7 0 -18 -10 -25 -22z"/>
<path d="M4634 1985 c-22 -47 -32 -224 -15 -267 14 -37 37 -35 61 4 19 31 24
53 35 160 6 54 5 57 -22 70 -18 9 -30 24 -34 43 l-6 30 -19 -40z"/>
<path d="M4685 2000 c-7 -12 2 -30 16 -30 12 0 12 27 0 35 -5 3 -12 1 -16 -5z"/>
<path d="M6075 1968 c-8 -28 -15 -53 -15 -55 0 -2 19 -3 43 -1 l42 3 3 53 c3
52 3 52 -27 52 -28 0 -31 -4 -46 -52z"/>
</g>
</svg>
